<svg aria-hidden="true" style="position: absolute; width: 0; height: 0; overflow: hidden;" version="1.1" xmlns="http://www.w3.org/2000/svg" xmlns:xlink="http://www.w3.org/1999/xlink">
<defs>
<symbol id="icon-Logo" viewBox="0 0 32 32">
<path fill="#fff" style="fill: var(--color1, #fff)" d="M8.552 13.769l-0.127 0.133v0.393c0 0.013-0.002 0.027-0.007 0.039s-0.012 0.024-0.022 0.033c-0.010 0.010-0.021 0.018-0.034 0.023s-0.026 0.008-0.040 0.008c-0.013-0-0.027-0.003-0.039-0.008s-0.023-0.013-0.032-0.023c-0.009-0.009-0.017-0.021-0.022-0.033s-0.007-0.026-0.007-0.039v-1.241c0.001-0.027 0.011-0.052 0.029-0.072 0.020-0.018 0.045-0.028 0.072-0.029 0.027 0.001 0.053 0.011 0.073 0.029 0.018 0.020 0.029 0.047 0.029 0.074v0.555l0.57-0.608c0.008-0.011 0.018-0.019 0.029-0.026s0.024-0.011 0.037-0.013c0.013-0.002 0.027-0.002 0.040 0.002s0.025 0.010 0.036 0.019c0.011 0.008 0.020 0.018 0.026 0.029s0.011 0.024 0.013 0.037c0.002 0.013 0.002 0.027-0.002 0.040s-0.010 0.025-0.019 0.036l-0.461 0.495 0.467 0.611c0.009 0.010 0.016 0.021 0.021 0.034s0.006 0.026 0.005 0.040c-0.004 0.027-0.018 0.052-0.040 0.069-0.018 0.014-0.040 0.022-0.064 0.023-0.015 0-0.030-0.003-0.044-0.009s-0.025-0.016-0.035-0.028l-0.453-0.592z"></path>
<path fill="#fff" style="fill: var(--color1, #fff)" d="M9.816 13.841l-0.418 0.512c-0.009 0.012-0.021 0.022-0.035 0.028s-0.029 0.010-0.044 0.011c-0.023-0-0.044-0.008-0.062-0.023-0.011-0.008-0.020-0.017-0.027-0.029s-0.011-0.024-0.013-0.037c-0.002-0.013-0.002-0.027 0.002-0.040s0.010-0.025 0.019-0.036l0.449-0.553-0.444-0.549c-0.009-0.010-0.015-0.023-0.019-0.036s-0.004-0.027-0.002-0.040c0.001-0.013 0.005-0.026 0.012-0.038s0.016-0.022 0.027-0.029c0.010-0.009 0.022-0.015 0.035-0.018s0.026-0.004 0.039-0.002c0.027 0.004 0.051 0.018 0.068 0.039l0.414 0.508 0.405-0.509c0.017-0.021 0.041-0.035 0.068-0.039 0.013-0.002 0.027-0.001 0.039 0.002s0.025 0.010 0.035 0.018c0.011 0.008 0.020 0.018 0.027 0.029s0.011 0.025 0.012 0.038c0.002 0.013 0.002 0.027-0.002 0.040s-0.010 0.025-0.019 0.036l-0.436 0.549-0.13 0.166z"></path>
<path fill="#fff" style="fill: var(--color1, #fff)" d="M11.054 12.959c0.053 0.001 0.106 0.012 0.155 0.034s0.093 0.052 0.129 0.091c0.074 0.074 0.116 0.174 0.117 0.279s-0.039 0.205-0.111 0.281c-0.074 0.078-0.175 0.126-0.282 0.135-0.001 0.001-0.118 0.002-0.352 0.002v0.506c0 0.013-0.002 0.027-0.008 0.039s-0.013 0.023-0.023 0.033c-0.009 0.010-0.020 0.018-0.033 0.023s-0.026 0.008-0.039 0.008c-0.027-0.001-0.053-0.011-0.072-0.030s-0.030-0.044-0.031-0.071v-1.227c-0-0.014 0.002-0.027 0.008-0.040s0.013-0.024 0.023-0.034c0.009-0.009 0.021-0.017 0.033-0.022s0.026-0.007 0.039-0.007h0.447zM11.038 13.576c0.028 0.001 0.056-0.005 0.082-0.015s0.049-0.026 0.069-0.046c0.039-0.039 0.062-0.092 0.063-0.147-0.002-0.055-0.025-0.107-0.064-0.146-0.020-0.019-0.043-0.034-0.069-0.044s-0.053-0.014-0.081-0.013h-0.326v0.412h0.327z"></path>
<path fill="#fff" style="fill: var(--color1, #fff)" d="M12.81 13.459c-0.023 0.013-0.051 0.016-0.076 0.008-0.012-0.003-0.024-0.008-0.034-0.016s-0.018-0.018-0.024-0.029c-0.103-0.171-0.25-0.256-0.442-0.256-0.136 0.001-0.267 0.055-0.363 0.151s-0.152 0.226-0.153 0.361c-0.001 0.067 0.012 0.134 0.038 0.195s0.065 0.117 0.114 0.163c0.048 0.047 0.105 0.084 0.167 0.109s0.129 0.037 0.197 0.036c0.084 0 0.167-0.021 0.241-0.061 0.076-0.041 0.14-0.1 0.187-0.172 0.006-0.012 0.015-0.023 0.026-0.031s0.024-0.013 0.038-0.015c0.013-0.003 0.026-0.003 0.039 0.001s0.024 0.010 0.033 0.020c0.012 0.006 0.023 0.014 0.032 0.024s0.015 0.022 0.019 0.035c0.004 0.013 0.005 0.027 0.003 0.040s-0.009 0.026-0.017 0.036c-0.065 0.102-0.154 0.186-0.259 0.244s-0.223 0.089-0.344 0.088c-0.095 0.001-0.189-0.017-0.277-0.053s-0.167-0.089-0.234-0.156c-0.069-0.065-0.124-0.143-0.161-0.23s-0.056-0.181-0.054-0.275c-0.002-0.096 0.017-0.191 0.054-0.279s0.092-0.168 0.162-0.234c0.112-0.111 0.258-0.182 0.415-0.203s0.316 0.010 0.454 0.088c0.109 0.061 0.198 0.151 0.257 0.26 0.008 0.013 0.014 0.027 0.017 0.043s0.002 0.031-0.002 0.046c-0.004 0.013-0.010 0.025-0.019 0.035s-0.020 0.018-0.032 0.024z"></path>
<path fill="#fff" style="fill: var(--color1, #fff)" d="M13.104 14.39c-0.014 0.001-0.027-0.002-0.040-0.007s-0.024-0.012-0.033-0.022c-0.010-0.010-0.018-0.021-0.023-0.034s-0.008-0.026-0.008-0.040v-1.226c-0.001-0.013 0.002-0.027 0.007-0.039s0.013-0.023 0.024-0.032c0.009-0.010 0.020-0.018 0.033-0.023s0.026-0.008 0.039-0.008c0.013 0 0.027 0.003 0.039 0.008s0.024 0.013 0.033 0.023c0.010 0.009 0.018 0.020 0.024 0.032s0.008 0.026 0.007 0.039v0.506c0.233 0 0.351 0.001 0.352 0.002 0.107 0.009 0.208 0.057 0.282 0.135 0.072 0.074 0.112 0.174 0.111 0.277-0.001 0.106-0.044 0.208-0.118 0.284s-0.176 0.12-0.283 0.124l-0.446-0zM13.206 13.773v0.412h0.327c0.028 0.001 0.055-0.003 0.081-0.013s0.049-0.025 0.069-0.044c0.039-0.039 0.062-0.091 0.064-0.146-0.001-0.056-0.024-0.108-0.064-0.148-0.019-0.020-0.043-0.036-0.069-0.046s-0.054-0.016-0.082-0.015h-0.327zM14.015 13.054c0-0.027 0.011-0.053 0.030-0.072s0.045-0.030 0.072-0.030c0.028 0.001 0.054 0.011 0.074 0.030 0.018 0.020 0.028 0.045 0.029 0.072v1.237c0 0.013-0.002 0.026-0.007 0.039s-0.012 0.024-0.022 0.033c-0.009 0.010-0.020 0.018-0.033 0.023s-0.026 0.008-0.039 0.008c-0.027-0.001-0.052-0.012-0.071-0.031s-0.030-0.044-0.031-0.071l-0.002-1.239z"></path>
<path fill="#fff" style="fill: var(--color1, #fff)" d="M15.849 12.955c0.027 0.001 0.052 0.011 0.072 0.029 0.018 0.021 0.029 0.047 0.029 0.074-0.001 0.027-0.011 0.052-0.029 0.072-0.020 0.018-0.045 0.028-0.072 0.029h-0.313v1.133c0 0.013-0.002 0.027-0.007 0.039s-0.012 0.024-0.022 0.033c-0.009 0.010-0.020 0.018-0.033 0.023s-0.026 0.008-0.039 0.008c-0.027-0.001-0.052-0.012-0.071-0.031s-0.030-0.044-0.031-0.071v-1.135h-0.312c-0.013 0-0.027-0.002-0.039-0.007s-0.024-0.012-0.033-0.022c-0.010-0.009-0.017-0.020-0.023-0.032s-0.008-0.025-0.008-0.039c-0-0.014 0.002-0.027 0.008-0.040s0.013-0.024 0.023-0.034c0.009-0.009 0.021-0.017 0.033-0.022s0.026-0.007 0.039-0.007l0.827-0.001z"></path>
<path fill="#fff" style="fill: var(--color1, #fff)" d="M16.584 13.841l-0.418 0.512c-0.009 0.012-0.022 0.022-0.036 0.029s-0.029 0.010-0.045 0.010c-0.023-0-0.044-0.008-0.062-0.023-0.011-0.008-0.020-0.017-0.026-0.029s-0.011-0.024-0.013-0.037c-0.002-0.013-0.002-0.027 0.002-0.040s0.010-0.025 0.019-0.036l0.449-0.553-0.444-0.549c-0.009-0.010-0.015-0.023-0.019-0.036s-0.004-0.027-0.002-0.040c0.003-0.027 0.017-0.051 0.038-0.067s0.048-0.024 0.075-0.021c0.027 0.004 0.051 0.018 0.068 0.039l0.414 0.508 0.406-0.508c0.017-0.021 0.041-0.035 0.068-0.039s0.054 0.004 0.075 0.021 0.035 0.041 0.038 0.067c0.002 0.013 0.002 0.027-0.002 0.040s-0.010 0.025-0.019 0.036l-0.436 0.549-0.13 0.166z"></path>
<path fill="#fff" style="fill: var(--color1, #fff)" d="M17.823 12.959c0.053 0.001 0.106 0.012 0.155 0.034s0.093 0.052 0.129 0.091c0.038 0.037 0.068 0.081 0.088 0.129s0.030 0.101 0.029 0.153c0.001 0.051-0.009 0.102-0.028 0.149s-0.047 0.091-0.083 0.127c-0.074 0.078-0.174 0.126-0.282 0.135-0.002 0.001-0.119 0.002-0.352 0.002v0.506c0 0.013-0.002 0.027-0.008 0.039s-0.013 0.023-0.023 0.032c-0.009 0.010-0.020 0.018-0.033 0.023s-0.026 0.008-0.039 0.008c-0.027-0.001-0.052-0.012-0.071-0.031s-0.030-0.044-0.031-0.070v-1.227c-0-0.014 0.003-0.027 0.008-0.040s0.013-0.024 0.023-0.034c0.009-0.009 0.021-0.017 0.033-0.022s0.026-0.007 0.039-0.007h0.445zM17.806 13.576c0.028 0.001 0.056-0.005 0.081-0.015s0.049-0.026 0.069-0.046c0.040-0.039 0.062-0.092 0.064-0.148-0.002-0.055-0.024-0.107-0.064-0.146-0.020-0.019-0.043-0.034-0.069-0.044s-0.053-0.014-0.081-0.013h-0.327v0.412h0.327z"></path>
<path fill="#fff" style="fill: var(--color1, #fff)" d="M19.108 14.185c0.027 0.001 0.052 0.011 0.072 0.029 0.010 0.010 0.018 0.021 0.023 0.034s0.008 0.026 0.008 0.040c0 0.013-0.002 0.027-0.008 0.039s-0.013 0.023-0.023 0.033c-0.009 0.010-0.021 0.018-0.033 0.023s-0.026 0.008-0.039 0.008h-0.718c-0.027-0.001-0.052-0.012-0.071-0.031s-0.030-0.044-0.031-0.070v-1.227c-0-0.014 0.003-0.027 0.008-0.040s0.013-0.024 0.023-0.034c0.009-0.009 0.021-0.017 0.033-0.022s0.026-0.007 0.039-0.007h0.716c0.027 0.001 0.052 0.011 0.072 0.029 0.010 0.010 0.018 0.021 0.023 0.034s0.008 0.026 0.008 0.040c0.001 0.014-0.002 0.027-0.007 0.040s-0.013 0.024-0.023 0.033c-0.009 0.010-0.021 0.017-0.033 0.022s-0.026 0.008-0.040 0.007h-0.615v0.412h0.469c0.027 0.001 0.052 0.011 0.072 0.029 0.010 0.010 0.018 0.021 0.023 0.034s0.008 0.026 0.008 0.040c0 0.013-0.002 0.027-0.008 0.039s-0.013 0.023-0.023 0.032c-0.009 0.010-0.020 0.018-0.033 0.023s-0.026 0.008-0.039 0.008h-0.468v0.404h0.614z"></path>
<path fill="#fff" style="fill: var(--color1, #fff)" d="M20.383 14.392h-0.944c-0.013 0-0.027-0.002-0.039-0.008s-0.024-0.013-0.033-0.023c-0.010-0.009-0.017-0.020-0.023-0.033s-0.008-0.026-0.008-0.039v-1.226c-0.001-0.013 0.002-0.027 0.007-0.039s0.013-0.023 0.024-0.032c0.009-0.010 0.020-0.018 0.033-0.023s0.026-0.008 0.039-0.008c0.014-0 0.027 0.003 0.039 0.008s0.024 0.013 0.033 0.023c0.010 0.009 0.018 0.020 0.023 0.033s0.007 0.026 0.007 0.039v1.123h0.636v-1.123c-0.001-0.013 0.002-0.027 0.007-0.039s0.013-0.023 0.024-0.032c0.009-0.010 0.020-0.018 0.033-0.023s0.026-0.008 0.040-0.008c0.014 0 0.027 0.003 0.039 0.008s0.024 0.013 0.033 0.023c0.010 0.009 0.018 0.020 0.024 0.032s0.008 0.026 0.007 0.039v1.123h0.105c0.027 0 0.053 0.011 0.074 0.029 0.018 0.020 0.028 0.045 0.029 0.072v0.336c0 0.013-0.002 0.027-0.007 0.039s-0.013 0.024-0.022 0.033c-0.020 0.020-0.046 0.031-0.074 0.031-0.014 0-0.027-0.003-0.040-0.008s-0.024-0.013-0.034-0.023c-0.010-0.009-0.018-0.020-0.023-0.032s-0.008-0.026-0.008-0.039l0.001-0.231z"></path>
<path fill="#fff" style="fill: var(--color1, #fff)" d="M21.025 13.769l-0.127 0.133v0.393c0 0.013-0.002 0.027-0.007 0.039s-0.012 0.024-0.022 0.033c-0.010 0.010-0.021 0.018-0.034 0.023s-0.027 0.008-0.040 0.008c-0.013 0-0.027-0.003-0.039-0.008s-0.024-0.013-0.033-0.023c-0.010-0.009-0.017-0.020-0.022-0.033s-0.007-0.026-0.007-0.039v-1.241c0.001-0.027 0.011-0.052 0.029-0.072 0.020-0.018 0.045-0.028 0.072-0.029 0.027 0.001 0.053 0.011 0.074 0.029 0.018 0.020 0.028 0.047 0.029 0.074v0.555l0.57-0.608c0.008-0.011 0.018-0.019 0.029-0.026s0.024-0.011 0.037-0.013c0.013-0.002 0.027-0.002 0.040 0.002s0.025 0.010 0.036 0.019c0.011 0.008 0.020 0.018 0.026 0.029s0.011 0.024 0.013 0.037c0.002 0.013 0.002 0.027-0.002 0.040s-0.010 0.025-0.019 0.036l-0.46 0.495 0.467 0.611c0.009 0.010 0.016 0.021 0.021 0.034s0.006 0.026 0.005 0.040c-0.002 0.014-0.007 0.027-0.014 0.039s-0.016 0.022-0.027 0.031c-0.018 0.015-0.040 0.023-0.064 0.023-0.015 0-0.030-0.003-0.043-0.009s-0.025-0.016-0.035-0.028l-0.453-0.592z"></path>
<path fill="#fff" style="fill: var(--color1, #fff)" d="M22.422 14.39c-0.094 0.001-0.188-0.017-0.275-0.054s-0.165-0.091-0.229-0.16c-0.067-0.067-0.12-0.146-0.156-0.233s-0.053-0.181-0.052-0.275c-0.001-0.093 0.017-0.185 0.053-0.271s0.088-0.164 0.155-0.229c0.066-0.066 0.145-0.119 0.231-0.155s0.179-0.054 0.273-0.054 0.187 0.018 0.273 0.054c0.086 0.036 0.165 0.088 0.231 0.155 0.067 0.065 0.119 0.143 0.155 0.229s0.054 0.178 0.053 0.271c0.001 0.094-0.016 0.188-0.052 0.275s-0.089 0.167-0.156 0.233c-0.064 0.069-0.142 0.123-0.229 0.16s-0.18 0.055-0.275 0.054zM22.422 13.158c-0.136 0-0.266 0.054-0.362 0.15s-0.15 0.225-0.15 0.361c-0.002 0.069 0.011 0.137 0.037 0.201s0.065 0.122 0.114 0.17c0.047 0.048 0.104 0.086 0.166 0.112s0.129 0.039 0.196 0.039 0.134-0.013 0.196-0.039c0.062-0.026 0.119-0.064 0.166-0.112 0.049-0.049 0.088-0.107 0.114-0.17s0.039-0.132 0.039-0.201c0.001-0.067-0.013-0.134-0.039-0.196s-0.065-0.118-0.114-0.165c-0.047-0.048-0.103-0.086-0.166-0.112s-0.129-0.039-0.197-0.037z"></path>
<path fill="#fff" style="fill: var(--color1, #fff)" d="M23.453 13.166v1.123c0 0.014-0.002 0.027-0.008 0.040s-0.013 0.024-0.023 0.034c-0.020 0.018-0.045 0.028-0.072 0.029-0.013 0-0.027-0.002-0.039-0.007s-0.024-0.012-0.033-0.022c-0.010-0.010-0.018-0.021-0.023-0.034s-0.008-0.026-0.008-0.040v-1.226c-0.001-0.013 0.002-0.027 0.007-0.039s0.013-0.023 0.024-0.032c0.009-0.010 0.020-0.018 0.033-0.023s0.026-0.008 0.040-0.008h0.716c0.013-0 0.027 0.003 0.039 0.008s0.024 0.013 0.033 0.023c0.010 0.009 0.018 0.020 0.023 0.032s0.008 0.026 0.007 0.039c0 0.014-0.002 0.027-0.008 0.040s-0.013 0.024-0.023 0.034c-0.019 0.017-0.044 0.028-0.071 0.029h-0.614z"></path>
<path fill="#fff" style="fill: var(--color1, #fff)" d="M24.933 14.39c-0.094 0.001-0.188-0.017-0.275-0.054s-0.165-0.091-0.229-0.16c-0.067-0.067-0.12-0.146-0.156-0.233s-0.053-0.181-0.052-0.275c-0.001-0.093 0.017-0.185 0.053-0.271s0.088-0.164 0.155-0.229c0.066-0.066 0.145-0.119 0.231-0.155s0.179-0.054 0.273-0.054c0.094 0 0.187 0.018 0.273 0.054s0.165 0.089 0.231 0.155c0.067 0.065 0.119 0.143 0.155 0.229s0.054 0.178 0.053 0.271c0.001 0.094-0.016 0.188-0.052 0.275s-0.089 0.167-0.156 0.233c-0.064 0.069-0.142 0.123-0.229 0.16s-0.18 0.055-0.275 0.054zM24.933 13.158c-0.136 0-0.266 0.054-0.362 0.15s-0.15 0.225-0.15 0.361c-0.002 0.069 0.011 0.137 0.037 0.201s0.065 0.122 0.114 0.17c0.047 0.048 0.104 0.086 0.166 0.112s0.129 0.039 0.196 0.039c0.068 0 0.134-0.013 0.196-0.039s0.119-0.064 0.166-0.112c0.049-0.049 0.088-0.107 0.114-0.17s0.039-0.132 0.039-0.201c0.001-0.067-0.013-0.134-0.039-0.196s-0.065-0.118-0.114-0.165c-0.047-0.048-0.103-0.086-0.166-0.112s-0.129-0.039-0.197-0.037z"></path>
<path fill="#fff" style="fill: var(--color1, #fff)" d="M27.234 12.964c0.014-0 0.027 0.002 0.040 0.008s0.024 0.013 0.034 0.023c0.010 0.009 0.017 0.020 0.023 0.033s0.008 0.026 0.008 0.039v1.226c0 0.013-0.002 0.027-0.008 0.039s-0.013 0.023-0.023 0.033c-0.019 0.018-0.045 0.029-0.072 0.029s-0.053-0.010-0.072-0.029c-0.010-0.009-0.018-0.020-0.023-0.033s-0.008-0.026-0.008-0.039v-0.506h-0.21l-0.341 0.557c-0.009 0.015-0.022 0.028-0.037 0.037s-0.033 0.014-0.051 0.013c-0.019 0.001-0.037-0.004-0.053-0.014-0.012-0.007-0.022-0.017-0.030-0.028s-0.014-0.024-0.017-0.038c-0.004-0.013-0.004-0.026-0.002-0.039s0.007-0.026 0.015-0.037l0.288-0.467c-0.087-0.029-0.164-0.083-0.22-0.156-0.055-0.069-0.085-0.155-0.085-0.244 0.001-0.054 0.012-0.108 0.034-0.157s0.054-0.094 0.093-0.131c0.037-0.037 0.081-0.067 0.129-0.087s0.1-0.030 0.153-0.030l0.437-0.001zM27.132 13.58v-0.412h-0.327c-0.028-0.001-0.055 0.003-0.081 0.013s-0.049 0.025-0.069 0.044c-0.039 0.039-0.062 0.091-0.064 0.145 0.002 0.056 0.024 0.108 0.064 0.148 0.020 0.020 0.043 0.036 0.069 0.046s0.054 0.016 0.082 0.015h0.327z"></path>
<path fill="#fff" style="fill: var(--color1, #fff)" d="M27.678 14.007c0.004 0.027 0.013 0.054 0.028 0.077s0.034 0.044 0.056 0.060c0.048 0.036 0.107 0.054 0.167 0.051 0.061 0.002 0.12-0.019 0.165-0.059 0.021-0.018 0.037-0.040 0.049-0.065s0.017-0.052 0.017-0.079c-0-0.028-0.006-0.056-0.017-0.081s-0.028-0.049-0.048-0.068c-0.021-0.022-0.047-0.039-0.075-0.050s-0.059-0.017-0.089-0.016c-0.031 0.001-0.061-0.009-0.084-0.029-0.010-0.009-0.018-0.020-0.023-0.033s-0.008-0.026-0.008-0.039c-0-0.014 0.002-0.027 0.008-0.040s0.013-0.024 0.023-0.034c0.024-0.019 0.054-0.030 0.084-0.029s0.061-0.004 0.089-0.015c0.028-0.011 0.054-0.028 0.076-0.049 0.021-0.020 0.037-0.043 0.049-0.069s0.017-0.054 0.017-0.083c0-0.027-0.006-0.054-0.017-0.079s-0.028-0.047-0.049-0.065c-0.045-0.040-0.104-0.061-0.165-0.059-0.058 0.001-0.114 0.018-0.162 0.049-0.043 0.025-0.075 0.065-0.088 0.113-0.007 0.027-0.023 0.051-0.045 0.068-0.011 0.009-0.025 0.016-0.039 0.019s-0.029 0.002-0.043-0.002c-0.070-0.012-0.105-0.051-0.105-0.115 0.012-0.050 0.033-0.096 0.063-0.137s0.068-0.076 0.111-0.102c0.092-0.060 0.2-0.091 0.309-0.089 0.119-0.002 0.234 0.039 0.325 0.115 0.044 0.034 0.079 0.077 0.104 0.127s0.037 0.104 0.036 0.16c0.001 0.062-0.013 0.124-0.042 0.179s-0.071 0.103-0.122 0.138c0.051 0.035 0.093 0.082 0.122 0.137s0.043 0.116 0.043 0.178c0 0.108-0.047 0.203-0.14 0.283-0.089 0.079-0.206 0.123-0.325 0.121-0.116 0.002-0.229-0.033-0.323-0.101-0.085-0.062-0.142-0.153-0.16-0.256 0-0.064 0.035-0.103 0.105-0.117 0.031-0 0.061 0.009 0.086 0.027 0.011 0.006 0.020 0.014 0.027 0.024s0.011 0.022 0.013 0.034z"></path>
<path fill="#fff" style="fill: var(--color1, #fff)" d="M28.618 14.39c-0.013 0-0.027-0.002-0.039-0.007s-0.024-0.012-0.033-0.022c-0.010-0.010-0.018-0.021-0.023-0.034s-0.008-0.026-0.008-0.040v-1.226c-0.001-0.013 0.002-0.027 0.007-0.039s0.013-0.023 0.024-0.032c0.009-0.010 0.020-0.018 0.033-0.023s0.026-0.008 0.039-0.008c0.014-0 0.027 0.003 0.039 0.008s0.024 0.013 0.033 0.023c0.010 0.009 0.018 0.020 0.024 0.032s0.008 0.026 0.007 0.039v0.506c0.233 0 0.351 0.001 0.352 0.002 0.107 0.009 0.208 0.057 0.282 0.135 0.072 0.074 0.112 0.174 0.111 0.277-0.002 0.106-0.044 0.208-0.119 0.284s-0.176 0.12-0.283 0.124h-0.447zM28.72 13.773v0.412h0.327c0.028 0.001 0.055-0.003 0.081-0.013s0.049-0.025 0.069-0.044c0.039-0.039 0.062-0.091 0.064-0.146-0.001-0.056-0.024-0.108-0.064-0.148-0.019-0.020-0.043-0.036-0.069-0.046s-0.054-0.016-0.081-0.015h-0.327zM29.529 13.054c0-0.027 0.011-0.053 0.030-0.072s0.045-0.030 0.072-0.030c0.027 0.001 0.052 0.011 0.072 0.029 0.018 0.020 0.028 0.045 0.029 0.072v1.239c0 0.013-0.002 0.026-0.007 0.039s-0.012 0.024-0.022 0.033c-0.009 0.010-0.021 0.018-0.033 0.023s-0.026 0.008-0.039 0.008c-0.027-0.001-0.052-0.012-0.071-0.031s-0.030-0.044-0.031-0.071v-1.239z"></path>
<path fill="#fff" style="fill: var(--color1, #fff)" d="M30.201 13.769l-0.127 0.133v0.393c0 0.013-0.002 0.026-0.007 0.039s-0.012 0.024-0.022 0.033c-0.010 0.010-0.021 0.018-0.034 0.023s-0.026 0.008-0.040 0.008c-0.014 0-0.027-0.003-0.039-0.008s-0.024-0.013-0.033-0.023c-0.009-0.009-0.017-0.021-0.022-0.033s-0.007-0.026-0.007-0.039v-1.241c0.001-0.027 0.011-0.053 0.029-0.074 0.020-0.018 0.046-0.028 0.072-0.029 0.027 0.001 0.053 0.012 0.073 0.030 0.018 0.021 0.028 0.047 0.029 0.074v0.555l0.57-0.608c0.008-0.011 0.018-0.019 0.029-0.026s0.024-0.011 0.037-0.013c0.014-0.002 0.027-0.002 0.040 0.002s0.025 0.010 0.036 0.019c0.011 0.008 0.020 0.017 0.027 0.029s0.011 0.024 0.013 0.037c0.002 0.013 0.002 0.027-0.002 0.040s-0.010 0.025-0.019 0.036l-0.461 0.494 0.467 0.611c0.009 0.010 0.016 0.022 0.021 0.034s0.006 0.026 0.005 0.040c-0.004 0.027-0.018 0.052-0.039 0.070-0.018 0.015-0.041 0.023-0.064 0.023-0.015 0-0.030-0.003-0.043-0.009s-0.026-0.016-0.035-0.028l-0.454-0.592z"></path>
<path fill="#fff" style="fill: var(--color1, #fff)" d="M31.654 14.107h-0.502l-0.087 0.209c-0.010 0.049-0.042 0.074-0.099 0.074h-0.023c-0.014-0.005-0.027-0.013-0.038-0.023s-0.020-0.022-0.026-0.036c-0.014-0.015-0.017-0.040-0.010-0.076l0.44-1.221c0.005-0.022 0.018-0.042 0.037-0.056s0.042-0.020 0.065-0.018c0.022-0.002 0.044 0.005 0.062 0.019s0.030 0.033 0.034 0.055l0.418 1.221c0.010 0.024 0.010 0.052 0 0.076-0.012 0.027-0.034 0.048-0.062 0.060-0.026 0.005-0.053 0.001-0.076-0.010-0.027-0.014-0.048-0.036-0.060-0.064l-0.074-0.209zM31.593 13.9l-0.181-0.525-0.185 0.525h0.366z"></path>
<path fill="#e6514a" style="fill: var(--color2, #e6514a)" d="M10.087 15.15c0.153-0.343 0.671-0.329 0.815 0.013 0.454 0.959 0.798 1.969 1.232 2.937 0.271 0.054 0.742 0.070 0.709 0.462 0.051 0.286-0.231 0.532-0.509 0.488-1.221 0.007-2.443 0.021-3.664 0.002-0.356 0.040-0.606-0.334-0.493-0.655 0.13-0.267 0.452-0.23 0.694-0.296 0.429-0.973 0.762-1.989 1.216-2.952zM9.878 18.147c0.414-0.002 0.829-0.002 1.243 0-0.201-0.529-0.403-1.058-0.606-1.586-0.245 0.515-0.44 1.051-0.637 1.586z"></path>
<path fill="#e6514a" style="fill: var(--color2, #e6514a)" d="M13.133 15.279c0.009-0.233 0.206-0.412 0.425-0.403 0.1 0.006 0.195 0.048 0.267 0.119s0.115 0.164 0.122 0.264c-0.002 0.768-0.004 1.536-0.007 2.304 0.4-0.465 0.801-0.939 1.204-1.423 0.283-0.341 0.562-0.68 0.837-1.018 0.045-0.061 0.102-0.111 0.169-0.147 0.135-0.073 0.329-0.096 0.451-0.012 0.146 0.101 0.156 0.319 0.159 0.418 0.014 0.45 0.017 1.692-0.005 3.361-0.072 0.224-0.289 0.365-0.509 0.34-0.095-0.012-0.185-0.053-0.257-0.116s-0.124-0.146-0.148-0.239c-0.009-0.668-0.018-1.336-0.027-2.004l-1.131 1.204c-0.307 0.35-0.577 0.642-0.793 0.875-0.049 0.053-0.187 0.195-0.373 0.228-0.043 0.008-0.183 0.033-0.286-0.045-0.011-0.007-0.021-0.015-0.030-0.024-0.081-0.076-0.087-0.186-0.089-0.231-0.007-0.134-0.002-1.534 0.020-3.451z"></path>
<path fill="#e6514a" style="fill: var(--color2, #e6514a)" d="M18.21 15.37c0.132-0.34 0.474-0.655 0.864-0.523 0.432 0.191 0.534 0.694 0.701 1.089 0.3 0.882 0.712 1.729 0.947 2.633 0.095 0.356-0.331 0.602-0.636 0.473-0.281-0.179-0.316-0.537-0.435-0.819-0.511-0.002-1.021 0-1.53-0.004-0.095 0.235-0.167 0.484-0.305 0.698-0.195 0.241-0.631 0.211-0.772-0.071-0.046-0.408 0.149-0.788 0.282-1.161 0.306-0.768 0.56-1.554 0.882-2.314zM18.366 17.363c0.341 0 0.683-0 1.025-0.002-0.178-0.51-0.335-1.027-0.493-1.543-0.192 0.509-0.357 1.027-0.532 1.544z"></path>
<path fill="#e6514a" style="fill: var(--color2, #e6514a)" d="M22.141 15.555c0.067-0.197 0.232-0.685 0.53-0.723 0.053-0.006 0.106 0 0.155 0.018 0.337 0.109 0.474 0.576 0.498 0.663l1.215 3.054c0.019 0.104 0.002 0.211-0.050 0.303s-0.134 0.163-0.233 0.201-0.208 0.040-0.308 0.007c-0.1-0.034-0.186-0.101-0.241-0.191l-0.946-2.33-0.814 2.173c-0.065 0.211-0.229 0.363-0.421 0.385-0.037 0.004-0.262 0.025-0.384-0.146-0.111-0.156-0.046-0.341-0.039-0.36 0.458-1.376 0.826-2.439 1.036-3.054z"></path>
<path fill="#e6514a" style="fill: var(--color2, #e6514a)" d="M25.997 14.987c0.748-0.27 1.682-0.184 2.27 0.389 0.696 0.687 0.745 1.823 0.39 2.684-0.61 1.41-2.924 1.445-3.614 0.089-0.539-1.069-0.277-2.702 0.955-3.162zM26.299 15.844c-0.6 0.436-0.655 1.342-0.325 1.96 0.31 0.599 1.268 0.647 1.643 0.092 0.347-0.516 0.347-1.238 0.029-1.769-0.264-0.448-0.923-0.557-1.347-0.283z"></path>
<path fill="#e6514a" style="fill: var(--color2, #e6514a)" d="M29.513 15.001l2.133-0.025c0.214 0.063 0.357 0.253 0.354 0.449-0.004 0.242-0.229 0.459-0.513 0.45l-1.409 0.003-0.017 2.836c-0.013 0.111-0.066 0.214-0.149 0.288s-0.192 0.116-0.304 0.116c-0.112 0-0.221-0.040-0.305-0.114s-0.138-0.176-0.151-0.287c-0.008-0.973-0.016-1.945-0.023-2.918-0.007-0.036-0.079-0.476 0.2-0.7 0.055-0.044 0.118-0.077 0.185-0.097z"></path>
<path fill="none" stroke="#fff" style="stroke: var(--color1, #fff)" stroke-linejoin="miter" stroke-linecap="butt" stroke-miterlimit="10" stroke-width="0.1562" d="M4.89 15.055c0.73 0 1.321-0.589 1.321-1.316s-0.592-1.316-1.321-1.316c-0.73 0-1.321 0.589-1.321 1.316s0.592 1.316 1.321 1.316z"></path>
<path fill="none" stroke="#fff" style="stroke: var(--color1, #fff)" stroke-linejoin="miter" stroke-linecap="round" stroke-miterlimit="10" stroke-width="0.1562" d="M5.542 14.14c-0.176 0.151-0.399 0.236-0.632 0.24s-0.459-0.073-0.64-0.218"></path>
<path fill="#fff" style="fill: var(--color1, #fff); stroke: var(--color1, #fff)" stroke="#fff" stroke-linejoin="miter" stroke-linecap="butt" stroke-miterlimit="4" stroke-width="0.1882" d="M4.456 13.442c0 0.029-0.024 0.053-0.054 0.053s-0.054-0.024-0.054-0.053c0-0.029 0.024-0.053 0.054-0.053s0.054 0.024 0.054 0.053z"></path>
<path fill="#fff" style="fill: var(--color1, #fff); stroke: var(--color1, #fff)" stroke="#fff" stroke-linejoin="miter" stroke-linecap="butt" stroke-miterlimit="4" stroke-width="0.1882" d="M5.494 13.442c0 0.029-0.024 0.053-0.054 0.053s-0.054-0.024-0.054-0.053c0-0.029 0.024-0.053 0.054-0.053s0.054 0.024 0.054 0.053z"></path>
<path fill="none" stroke="#fff" style="stroke: var(--color1, #fff)" stroke-linejoin="miter" stroke-linecap="butt" stroke-miterlimit="10" stroke-width="0.1562" d="M2.013 15.682c0.73 0 1.321-0.589 1.321-1.316s-0.592-1.316-1.321-1.316c-0.73 0-1.321 0.589-1.321 1.316s0.592 1.316 1.321 1.316z"></path>
<path fill="none" stroke="#fff" style="stroke: var(--color1, #fff)" stroke-linejoin="miter" stroke-linecap="round" stroke-miterlimit="10" stroke-width="0.1562" d="M2.665 14.768c-0.176 0.151-0.399 0.236-0.632 0.24s-0.459-0.073-0.64-0.218"></path>
<path fill="#fff" style="fill: var(--color1, #fff); stroke: var(--color1, #fff)" stroke="#fff" stroke-linejoin="miter" stroke-linecap="butt" stroke-miterlimit="4" stroke-width="0.1882" d="M1.579 14.069c0 0.029-0.024 0.053-0.054 0.053s-0.054-0.024-0.054-0.053c0-0.029 0.024-0.053 0.054-0.053s0.054 0.024 0.054 0.053z"></path>
<path fill="#fff" style="fill: var(--color1, #fff); stroke: var(--color1, #fff)" stroke="#fff" stroke-linejoin="miter" stroke-linecap="butt" stroke-miterlimit="4" stroke-width="0.1882" d="M2.617 14.069c0 0.029-0.024 0.053-0.054 0.053s-0.054-0.024-0.054-0.053c0-0.029 0.024-0.053 0.054-0.053s0.054 0.024 0.054 0.053z"></path>
<path fill="#fff" style="fill: var(--color1, #fff)" d="M6.715 17.361c0-1.043-0.894-1.931-1.047-2.132-0.203 0.251-0.598 0.304-0.778 0.313-0.18-0.010-0.574-0.062-0.777-0.313-0.153 0.201-1.047 1.089-1.047 2.132 0 0.758 0.448 1.582 1.731 1.655v0.006c0.032 0 0.063 0 0.094-0.002s0.062 0.002 0.094 0.002v-0.006c1.284-0.073 1.731-0.897 1.731-1.655z"></path>
<path fill="#3035c4" style="fill: var(--color3, #3035c4)" d="M6.715 17.37c0-0.343-0.060-0.559-0.195-0.85-0.276-0.592-3.026-0.536-3.302 0.014-0.157 0.311-0.153 0.459-0.153 0.836 0 0.758 0.448 1.582 1.731 1.655v0.006c0.032 0 0.063 0 0.094-0.002s0.062 0.002 0.094 0.002v-0.006c1.285-0.073 1.732-0.897 1.732-1.655z"></path>
<path fill="#e6514a" style="fill: var(--color2, #e6514a)" d="M3.075 17.564c0.189 0.615 0.547 1.395 1.721 1.462v0.006c0.032 0 0.063 0 0.094-0.002s0.062 0.002 0.094 0.002v-0.006c1.173-0.067 1.712-0.952 1.721-1.35-0.393-0.486-2.748-0.486-3.63-0.112z"></path>
<path fill="#fff" style="fill: var(--color1, #fff)" opacity="0.33" d="M4.906 18.576c-0.781-0.078-1.357-0.698-1.288-1.385-0.146-0.025-0.207 0.089-0.284 0.114-0.069 0.687 0.509 1.307 1.288 1.385 0.302 0.032 0.607-0.026 0.877-0.166-0.193 0.055-0.394 0.073-0.593 0.052z"></path>
<path fill="none" stroke="#fff" style="stroke: var(--color1, #fff)" stroke-linejoin="round" stroke-linecap="butt" stroke-miterlimit="4" stroke-width="0.1562" d="M6.715 17.361c0-1.043-0.894-1.931-1.047-2.132-0.203 0.251-0.598 0.304-0.778 0.313-0.18-0.010-0.574-0.062-0.777-0.313-0.153 0.201-1.047 1.089-1.047 2.132 0 0.758 0.448 1.582 1.731 1.655v0.006c0.032 0 0.063 0 0.094-0.002s0.062 0.002 0.094 0.002v-0.006c1.284-0.073 1.731-0.897 1.731-1.655z"></path>
<path fill="#e6514a" style="fill: var(--color2, #e6514a); stroke: var(--color1, #fff)" stroke="#fff" stroke-linejoin="round" stroke-linecap="butt" stroke-miterlimit="4" stroke-width="0.1562" d="M3.837 17.916c0-1.043-0.894-1.931-1.047-2.132-0.203 0.251-0.598 0.304-0.778 0.313-0.18-0.010-0.574-0.062-0.777-0.313-0.153 0.201-1.047 1.089-1.047 2.132 0 0.758 0.448 1.582 1.731 1.655v0.006c0.032 0 0.063 0 0.093-0.002s0.062 0.002 0.094 0.002v-0.006c1.283-0.073 1.731-0.897 1.731-1.655z"></path>
<path fill="#fff" style="fill: var(--color1, #fff)" d="M2.070 17.565l0.117 0.155 0.185-0.063-0.112 0.159 0.117 0.155-0.187-0.057-0.112 0.159-0.003-0.195-0.187-0.057 0.185-0.063-0.003-0.194z"></path>
<path fill="#fff" style="fill: var(--color1, #fff)" d="M1.904 18.537c-0.188 0-0.368-0.074-0.5-0.206s-0.207-0.311-0.207-0.498c0-0.187 0.075-0.366 0.207-0.498s0.313-0.206 0.5-0.206c0.077 0 0.153 0.013 0.226 0.037-0.133-0.084-0.287-0.129-0.444-0.13s-0.312 0.044-0.445 0.128c-0.133 0.084-0.239 0.204-0.306 0.345s-0.092 0.3-0.072 0.455c0.020 0.155 0.084 0.302 0.184 0.423s0.233 0.21 0.383 0.258c0.15 0.048 0.31 0.053 0.462 0.013s0.29-0.121 0.397-0.236c-0.115 0.075-0.249 0.114-0.386 0.114z"></path>
</symbol>
<symbol id="icon-YouTube" viewBox="0 0 32 32">
<path fill="#fff" style="fill: var(--color1, #fff)" d="M30.366 8.502c-0.346-1.285-1.359-2.298-2.644-2.644-2.348-0.642-11.738-0.642-11.738-0.642s-9.39 0-11.738 0.618c-1.26 0.346-2.298 1.384-2.644 2.669-0.618 2.347-0.618 7.216-0.618 7.216s0 4.893 0.618 7.216c0.346 1.285 1.359 2.298 2.644 2.644 2.372 0.643 11.738 0.643 11.738 0.643s9.39 0 11.738-0.618c1.285-0.346 2.298-1.359 2.644-2.644 0.618-2.348 0.618-7.216 0.618-7.216s0.025-4.893-0.618-7.24zM12.994 20.215v-8.995l7.809 4.497-7.809 4.497z"></path>
</symbol>
<symbol id="icon-portfolio1" viewBox="0 0 32 32">
<path fill="#e6514a" style="fill: var(--color2, #e6514a)" d="M20.499 3.178h-9.737c-0.259 0-0.469 0.21-0.469 0.469s0.21 0.469 0.469 0.469h9.737c0.259 0 0.469-0.21 0.469-0.469s-0.21-0.469-0.469-0.469z"></path>
<path fill="#e6514a" style="fill: var(--color2, #e6514a)" d="M10.133 3.647c0-0.347 0.281-0.629 0.629-0.629h9.737c0.347 0 0.629 0.281 0.629 0.629s-0.281 0.629-0.629 0.629h-9.737c-0.347 0-0.629-0.281-0.629-0.629zM10.762 3.338c-0.171 0-0.309 0.138-0.309 0.309s0.138 0.309 0.309 0.309h9.737c0.171 0 0.309-0.138 0.309-0.309s-0.138-0.309-0.309-0.309h-9.737z"></path>
<path fill="#e6514a" style="fill: var(--color2, #e6514a)" d="M20.499 5.922h-9.737c-0.259 0-0.469 0.21-0.469 0.469s0.21 0.469 0.469 0.469h9.737c0.259 0 0.469-0.21 0.469-0.469s-0.21-0.469-0.469-0.469z"></path>
<path fill="#e6514a" style="fill: var(--color2, #e6514a)" d="M10.133 6.391c0-0.347 0.281-0.629 0.629-0.629h9.737c0.347 0 0.629 0.281 0.629 0.629s-0.281 0.629-0.629 0.629h-9.737c-0.347 0-0.629-0.281-0.629-0.629zM10.762 6.082c-0.171 0-0.309 0.138-0.309 0.309s0.138 0.309 0.309 0.309h9.737c0.171 0 0.309-0.138 0.309-0.309s-0.138-0.309-0.309-0.309h-9.737z"></path>
<path fill="#3035c4" style="fill: var(--color3, #3035c4)" d="M29.47 16.212h-2.783v-1.309c0-1.725-1.403-3.128-3.128-3.128h-5.27c-1.725 0-3.128 1.403-3.128 3.128v1.309h-2.783c-1.4 0-2.53 1.135-2.53 2.53v10.72c0 1.395 1.135 2.53 2.53 2.53h17.092c1.395 0 2.53-1.135 2.53-2.53v-2.031c0-0.259-0.21-0.469-0.469-0.469s-0.469 0.21-0.469 0.469v2.031c0 0.878-0.714 1.592-1.592 1.592h-17.092c-0.878 0-1.592-0.714-1.592-1.592v-6.644c0.739 0.911 1.85 1.508 3.1 1.557v0.716c0 0.945 0.768 1.713 1.713 1.713s1.713-0.768 1.713-1.713v-0.712h7.224v0.712c0 0.945 0.768 1.713 1.713 1.713s1.713-0.768 1.713-1.713v-0.716c1.25-0.049 2.361-0.646 3.1-1.557v2.421c0 0.259 0.21 0.469 0.469 0.469s0.469-0.21 0.469-0.469v-6.498c0-1.394-1.13-2.53-2.53-2.53zM16.099 14.903c0-1.208 0.983-2.19 2.19-2.19h5.27c1.208 0 2.19 0.983 2.19 2.19v1.309h-0.976v-1.309c0-0.669-0.545-1.214-1.214-1.214h-5.27c-0.669 0-1.214 0.545-1.214 1.214v1.309h-0.976v-1.309zM18.013 16.212v-1.309c0-0.152 0.124-0.277 0.277-0.277h5.27c0.153 0 0.277 0.124 0.277 0.277v1.309h-5.823zM16.375 25.090c0 0.428-0.348 0.776-0.776 0.776s-0.776-0.348-0.776-0.776v-1.676c0-0.428 0.348-0.776 0.776-0.776s0.776 0.348 0.776 0.776v1.676zM27.025 25.090c0 0.428-0.348 0.776-0.776 0.776s-0.776-0.348-0.776-0.776v-1.176c0-0.002 0-0.003 0-0.005s-0-0.003-0-0.005v-0.49c0-0.428 0.348-0.776 0.776-0.776s0.776 0.348 0.776 0.776v1.676zM27.963 23.436v-0.021c0-0.945-0.768-1.713-1.713-1.713s-1.713 0.768-1.713 1.713v0.026h-7.224v-0.026c0-0.945-0.768-1.713-1.713-1.713s-1.713 0.768-1.713 1.713v0.021c-1.724-0.087-3.1-1.516-3.1-3.261v-1.433c0-0.879 0.713-1.592 1.592-1.592h17.092c0.877 0 1.592 0.711 1.592 1.592v1.433c-0 1.745-1.376 3.175-3.1 3.261z"></path>
<path fill="#3035c4" style="fill: var(--color3, #3035c4)" d="M9.245 31.053h-6.927c-0.761 0-1.381-0.619-1.381-1.381v-22.516c0-0.101 0.011-0.201 0.032-0.297h4.266c0.891 0 1.615-0.725 1.615-1.615v-4.266c0.097-0.021 0.196-0.032 0.297-0.032h15.893c0.761 0 1.381 0.619 1.381 1.381v8.043c0 0.259 0.21 0.469 0.469 0.469s0.469-0.21 0.469-0.469v-8.043c0-1.278-1.040-2.318-2.318-2.318h-15.893c-0.619 0-1.201 0.241-1.639 0.679l-4.83 4.83c-0.438 0.438-0.679 1.020-0.679 1.639v22.516c0 1.278 1.040 2.318 2.318 2.318h6.927c0.259 0 0.469-0.21 0.469-0.469s-0.21-0.469-0.469-0.469zM5.913 1.609v3.635c0 0.374-0.304 0.678-0.678 0.678h-3.635l4.313-4.313z"></path>
<path fill="#3035c4" style="fill: var(--color3, #3035c4)" d="M5.396 0.575c0.468-0.468 1.091-0.726 1.752-0.726h15.893c1.367 0 2.478 1.111 2.478 2.478v8.043c0 0.347-0.281 0.629-0.629 0.629s-0.629-0.281-0.629-0.629v-8.043c0-0.673-0.548-1.221-1.221-1.221h-15.893c-0.046 0-0.092 0.003-0.137 0.008v4.13c0 0.979-0.796 1.775-1.775 1.775h-4.13c-0.005 0.045-0.008 0.091-0.008 0.137v22.516c0 0.673 0.548 1.221 1.221 1.221h6.927c0.347 0 0.629 0.281 0.629 0.629s-0.281 0.629-0.629 0.629h-6.927c-1.367 0-2.478-1.111-2.478-2.478v-22.516c0-0.662 0.258-1.284 0.726-1.752l4.83-4.83zM7.148 0.169c-0.577 0-1.118 0.224-1.526 0.632l-4.83 4.83c-0.408 0.408-0.632 0.949-0.632 1.526v22.516c0 1.19 0.968 2.158 2.158 2.158h6.927c0.171 0 0.309-0.138 0.309-0.309s-0.138-0.309-0.309-0.309h-6.927c-0.85 0-1.541-0.691-1.541-1.541v-22.516c0-0.113 0.012-0.224 0.036-0.331l0.028-0.126h4.395c0.802 0 1.455-0.653 1.455-1.455v-4.395l0.126-0.027c0.108-0.023 0.219-0.036 0.331-0.036h15.893c0.85 0 1.541 0.691 1.541 1.541v8.043c0 0.171 0.138 0.309 0.309 0.309s0.309-0.138 0.309-0.309v-8.043c0-1.19-0.968-2.158-2.158-2.158h-15.893zM6.073 1.223v4.021c0 0.462-0.376 0.838-0.838 0.838h-4.021l4.859-4.859zM1.987 5.762h3.249c0.285 0 0.518-0.232 0.518-0.518v-3.249l-3.766 3.766z"></path>
</symbol>
<symbol id="icon-suitcases1" viewBox="0 0 32 32">
<path fill="#3035c4" style="fill: var(--color3, #3035c4)" d="M17.499 5.293h-3.71v-4.355h0.781c0.259 0 0.469-0.21 0.469-0.469s-0.21-0.469-0.469-0.469h-9.452c-0.259 0-0.469 0.21-0.469 0.469s0.21 0.469 0.469 0.469h0.781v4.355h-3.71c-1.208 0-2.19 0.982-2.19 2.19v20.308c0 1.101 0.816 2.014 1.875 2.167v0.636c0 0.776 0.631 1.406 1.406 1.406s1.406-0.631 1.406-1.406v-0.614h10.313v0.614c0 0.776 0.631 1.406 1.406 1.406s1.406-0.631 1.406-1.406v-0.636c1.059-0.153 1.875-1.067 1.875-2.167v-16.739c0-0.259-0.21-0.469-0.469-0.469s-0.469 0.21-0.469 0.469v16.739c0 0.691-0.562 1.252-1.252 1.252h-15.309c-0.691 0-1.252-0.562-1.252-1.252v-20.308c0-0.691 0.562-1.252 1.252-1.252h15.309c0.691 0 1.252 0.562 1.252 1.252v1.374c0 0.259 0.21 0.469 0.469 0.469s0.469-0.21 0.469-0.469v-1.374c-0-1.208-0.983-2.19-2.19-2.19zM16.876 29.98v0.614c0 0.259-0.21 0.469-0.469 0.469s-0.469-0.21-0.469-0.469v-0.614h0.938zM3.75 29.98v0.614c0 0.259-0.21 0.469-0.469 0.469s-0.469-0.21-0.469-0.469v-0.614h0.938zM6.837 0.938h6.014v4.355h-6.014v-4.355z"></path>
<path fill="#3035c4" style="fill: var(--color3, #3035c4)" d="M4.49 0.469c0-0.347 0.282-0.629 0.629-0.629h9.452c0.347 0 0.629 0.281 0.629 0.629s-0.282 0.629-0.629 0.629h-0.621v4.035h3.55c1.296 0 2.35 1.054 2.35 2.35v1.374c0 0.347-0.282 0.629-0.629 0.629s-0.629-0.281-0.629-0.629v-1.374c0-0.602-0.49-1.092-1.092-1.092h-15.309c-0.602 0-1.093 0.49-1.093 1.092v20.308c0 0.602 0.49 1.092 1.093 1.092h15.309c0.602 0 1.092-0.49 1.092-1.092v-16.739c0-0.347 0.282-0.629 0.629-0.629s0.629 0.281 0.629 0.629v16.739c0 1.133-0.806 2.081-1.875 2.302v0.502c0 0.864-0.703 1.566-1.566 1.566s-1.566-0.702-1.566-1.566v-0.454h-9.993v0.454c0 0.864-0.703 1.566-1.566 1.566s-1.566-0.702-1.566-1.566v-0.502c-1.069-0.22-1.875-1.168-1.875-2.302v-20.308c0-1.296 1.054-2.35 2.35-2.35h3.55v-4.035h-0.621c-0.347 0-0.629-0.281-0.629-0.629zM5.118 0.16c-0.171 0-0.309 0.138-0.309 0.309s0.138 0.309 0.309 0.309h0.941v4.675h-3.87c-1.119 0-2.030 0.911-2.030 2.030v20.308c0 1.020 0.757 1.867 1.738 2.009l0.137 0.020v0.775c0 0.687 0.559 1.246 1.246 1.246s1.246-0.559 1.246-1.246v-0.774h10.633v0.774c0 0.687 0.559 1.246 1.246 1.246s1.246-0.559 1.246-1.246v-0.775l0.137-0.020c0.982-0.142 1.738-0.989 1.738-2.009v-16.739c0-0.171-0.138-0.309-0.309-0.309s-0.309 0.138-0.309 0.309v16.739c0 0.779-0.634 1.412-1.412 1.412h-15.309c-0.779 0-1.413-0.633-1.413-1.412v-20.308c0-0.779 0.634-1.412 1.413-1.412h15.309c0.779 0 1.412 0.633 1.412 1.412v1.374c0 0.171 0.138 0.309 0.309 0.309s0.309-0.138 0.309-0.309v-1.374c-0-1.119-0.911-2.030-2.030-2.030h-3.87v-4.675h0.941c0.171 0 0.309-0.138 0.309-0.309s-0.138-0.309-0.309-0.309h-9.452zM6.677 0.777h6.334v4.675h-6.334v-4.675zM6.997 1.097v4.035h5.694v-4.035h-5.694zM2.653 29.82h1.258v0.774c0 0.347-0.282 0.629-0.629 0.629s-0.629-0.282-0.629-0.629v-0.774zM2.973 30.14v0.454c0 0.17 0.139 0.309 0.309 0.309s0.309-0.139 0.309-0.309v-0.454h-0.618zM15.778 29.82h1.258v0.774c0 0.347-0.282 0.629-0.629 0.629s-0.629-0.282-0.629-0.629v-0.774zM16.099 30.14v0.454c0 0.17 0.139 0.309 0.309 0.309s0.309-0.139 0.309-0.309v-0.454h-0.618z"></path>
<path fill="#3035c4" style="fill: var(--color3, #3035c4)" d="M6.361 28.105h10.984c0.259 0 0.469-0.21 0.469-0.469v-10.438c0-0.259-0.21-0.469-0.469-0.469h-15.001c-0.259 0-0.469 0.21-0.469 0.469v10.438c0 0.259 0.21 0.469 0.469 0.469h1.875c0.259 0 0.469-0.21 0.469-0.469s-0.21-0.469-0.469-0.469h-1.406v-9.5h14.063v9.5h-10.515c-0.259 0-0.469 0.21-0.469 0.469s0.21 0.469 0.469 0.469z"></path>
<path fill="#3035c4" style="fill: var(--color3, #3035c4)" d="M1.715 17.199c0-0.347 0.282-0.629 0.629-0.629h15.001c0.347 0 0.629 0.282 0.629 0.629v10.438c0 0.347-0.282 0.629-0.629 0.629h-10.984c-0.347 0-0.629-0.281-0.629-0.629s0.282-0.629 0.629-0.629h10.355v-9.18h-13.743v9.18h1.246c0.347 0 0.629 0.282 0.629 0.629s-0.282 0.629-0.629 0.629h-1.875c-0.347 0-0.629-0.282-0.629-0.629v-10.438zM2.344 16.89c-0.171 0-0.309 0.138-0.309 0.309v10.438c0 0.171 0.138 0.309 0.309 0.309h1.875c0.171 0 0.309-0.138 0.309-0.309s-0.138-0.309-0.309-0.309h-1.566v-9.82h14.383v9.82h-10.675c-0.171 0-0.309 0.138-0.309 0.309s0.138 0.309 0.309 0.309h10.984c0.171 0 0.309-0.138 0.309-0.309v-10.438c0-0.171-0.138-0.309-0.309-0.309h-15.001z"></path>
<path fill="#e6514a" style="fill: var(--color2, #e6514a)" d="M13.97 21.511c0.259 0 0.469-0.21 0.469-0.469v-1.523h1.031c0.259 0 0.469-0.21 0.469-0.469s-0.21-0.469-0.469-0.469h-11.251c-0.259 0-0.469 0.21-0.469 0.469s0.21 0.469 0.469 0.469h9.282v1.523c0 0.259 0.21 0.469 0.469 0.469z"></path>
<path fill="#e6514a" style="fill: var(--color2, #e6514a)" d="M3.59 19.051c0-0.347 0.282-0.629 0.629-0.629h11.251c0.347 0 0.629 0.281 0.629 0.629s-0.282 0.629-0.629 0.629h-0.871v1.363c0 0.347-0.282 0.629-0.629 0.629s-0.629-0.281-0.629-0.629v-1.363h-9.122c-0.347 0-0.629-0.281-0.629-0.629zM4.219 18.742c-0.171 0-0.309 0.138-0.309 0.309s0.138 0.309 0.309 0.309h9.442v1.683c0 0.171 0.138 0.309 0.309 0.309s0.309-0.138 0.309-0.309v-1.683h1.191c0.171 0 0.309-0.138 0.309-0.309s-0.138-0.309-0.309-0.309h-11.251z"></path>
<path fill="#e6514a" style="fill: var(--color2, #e6514a)" d="M12.97 12.788c0.259 0 0.469-0.21 0.469-0.469v-1.875c0-0.259-0.21-0.469-0.469-0.469h-6.25c-0.259 0-0.469 0.21-0.469 0.469v1.875c0 0.259 0.21 0.469 0.469 0.469h6.25zM7.188 10.913h5.313v0.937h-5.313v-0.937z"></path>
<path fill="#e6514a" style="fill: var(--color2, #e6514a)" d="M6.090 10.444c0-0.347 0.282-0.629 0.629-0.629h6.25c0.347 0 0.629 0.282 0.629 0.629v1.875c0 0.347-0.282 0.629-0.629 0.629h-6.25c-0.347 0-0.629-0.281-0.629-0.629v-1.875zM6.719 10.136c-0.17 0-0.309 0.138-0.309 0.309v1.875c0 0.171 0.138 0.309 0.309 0.309h6.25c0.171 0 0.309-0.138 0.309-0.309v-1.875c0-0.171-0.138-0.309-0.309-0.309h-6.25zM7.028 10.753h5.633v1.257h-5.633v-1.257zM7.348 11.073v0.617h4.993v-0.617h-4.993z"></path>
<path fill="#3035c4" style="fill: var(--color3, #3035c4)" d="M29.81 14.648h-3.726v-1.783c0-0.822-0.669-1.491-1.491-1.491h-3.528c-0.259 0-0.469 0.21-0.469 0.469s0.21 0.469 0.469 0.469h3.528c0.305 0 0.554 0.248 0.554 0.554v1.783h-4.082c-0.259 0-0.469 0.21-0.469 0.469s0.21 0.469 0.469 0.469h4.082v0.937l-0.991 1.009c-0.086 0.088-0.134 0.206-0.134 0.328v2.875c0 0.259 0.21 0.469 0.469 0.469h2.25c0.259 0 0.469-0.21 0.469-0.469v-2.875c0-0.123-0.048-0.241-0.134-0.328l-0.991-1.009v-0.937h3.726c0.691 0 1.253 0.562 1.253 1.252v7.387h-1.595c-0.259 0-0.469 0.21-0.469 0.469s0.21 0.469 0.469 0.469h1.595v1.235h-9.998c-0.259 0-0.469 0.21-0.469 0.469s0.21 0.469 0.469 0.469h9.998v0.455c0 0.691-0.562 1.252-1.253 1.252h-8.746c-0.259 0-0.469 0.21-0.469 0.469s0.21 0.469 0.469 0.469h6.402v0.614c0 0.776 0.631 1.406 1.406 1.406s1.406-0.631 1.406-1.406v-0.664c0.983-0.215 1.721-1.093 1.721-2.139v-10.952c0-1.208-0.983-2.19-2.19-2.19zM26.271 20.266h-1.313v-2.215l0.656-0.669 0.656 0.669v2.215h-0zM29.341 30.594c0 0.259-0.21 0.469-0.469 0.469s-0.469-0.21-0.469-0.469v-0.614h0.938v0.614h0z"></path>
<path fill="#3035c4" style="fill: var(--color3, #3035c4)" d="M20.435 11.842c0-0.347 0.281-0.629 0.629-0.629h3.528c0.911 0 1.651 0.74 1.651 1.651v1.623h3.566c1.296 0 2.35 1.054 2.35 2.35v10.952c0 1.078-0.73 1.989-1.721 2.265v0.539c0 0.864-0.703 1.566-1.566 1.566s-1.566-0.702-1.566-1.566v-0.454h-6.242c-0.347 0-0.629-0.281-0.629-0.629s0.281-0.629 0.629-0.629h8.746c0.602 0 1.093-0.49 1.093-1.092v-0.295h-9.838c-0.347 0-0.629-0.281-0.629-0.629s0.281-0.629 0.629-0.629h9.838v-0.915h-1.435c-0.347 0-0.629-0.281-0.629-0.629s0.282-0.629 0.629-0.629h1.435v-7.227c0-0.602-0.49-1.092-1.093-1.092h-3.566v0.712l0.945 0.963c0.115 0.117 0.18 0.276 0.18 0.44v2.875c0 0.347-0.282 0.629-0.629 0.629h-2.25c-0.347 0-0.629-0.282-0.629-0.629v-2.875c0-0.165 0.065-0.323 0.18-0.44l0.945-0.963v-0.712h-3.922c-0.347 0-0.629-0.281-0.629-0.629s0.281-0.629 0.629-0.629h3.922v-1.623c0-0.217-0.177-0.394-0.394-0.394h-3.528c-0.347 0-0.629-0.281-0.629-0.629zM21.064 11.533c-0.171 0-0.309 0.138-0.309 0.309s0.138 0.309 0.309 0.309h3.528c0.394 0 0.714 0.32 0.714 0.714v1.943h-4.242c-0.171 0-0.309 0.138-0.309 0.309s0.138 0.309 0.309 0.309h4.242v1.163l-1.037 1.056c-0.057 0.058-0.088 0.135-0.088 0.216v2.875c0 0.171 0.138 0.309 0.309 0.309h2.25c0.171 0 0.309-0.138 0.309-0.309v-2.875c0-0.081-0.032-0.159-0.088-0.216l-1.037-1.056v-1.163h3.886c0.779 0 1.413 0.633 1.413 1.412v7.547h-1.755c-0.171 0-0.309 0.138-0.309 0.309s0.138 0.309 0.309 0.309h1.755v1.555h-10.158c-0.171 0-0.309 0.138-0.309 0.309s0.138 0.309 0.309 0.309h10.158v0.615c0 0.779-0.634 1.412-1.413 1.412h-8.746c-0.171 0-0.309 0.138-0.309 0.309s0.138 0.309 0.309 0.309h6.562v0.774c0 0.687 0.559 1.246 1.246 1.246s1.246-0.559 1.246-1.246v-0.793l0.126-0.028c0.911-0.2 1.596-1.013 1.596-1.983v-10.952c0-1.119-0.911-2.030-2.030-2.030h-3.886v-1.943c0-0.734-0.597-1.331-1.331-1.331h-3.528zM25.615 17.155l0.816 0.831v2.44h-1.633v-2.44l0.816-0.831zM25.119 18.117v1.989h0.993v-1.989l-0.496-0.506-0.496 0.506zM28.243 29.82h1.258v0.614l0 0.16c0 0.347-0.282 0.629-0.629 0.629s-0.629-0.282-0.629-0.629v-0.774zM29.181 30.6v-0.46h-0.618v0.454c0 0.17 0.139 0.309 0.309 0.309 0.168 0 0.305-0.135 0.309-0.303z"></path>
<path fill="#3035c4" style="fill: var(--color3, #3035c4)" d="M21.064 25.163h6.237c0.259 0 0.469-0.21 0.469-0.469s-0.21-0.469-0.469-0.469h-6.237c-0.259 0-0.469 0.21-0.469 0.469s0.21 0.469 0.469 0.469z"></path>
<path fill="#3035c4" style="fill: var(--color3, #3035c4)" d="M20.435 24.694c0-0.347 0.281-0.629 0.629-0.629h6.237c0.347 0 0.629 0.281 0.629 0.629s-0.282 0.629-0.629 0.629h-6.237c-0.347 0-0.629-0.281-0.629-0.629zM21.064 24.385c-0.171 0-0.309 0.138-0.309 0.309s0.138 0.309 0.309 0.309h6.237c0.171 0 0.309-0.138 0.309-0.309s-0.138-0.309-0.309-0.309h-6.237z"></path>
</symbol>
<symbol id="icon-untitled" viewBox="0 0 32 32">
<path fill="#3035c4" style="fill: var(--color3, #3035c4)" d="M28.584 25.502c0.343-0.474 0.546-1.056 0.546-1.684v-3.756c0-0.345-0.28-0.625-0.625-0.625h-2.793c-1.291 0-2.342 1.050-2.342 2.342v2.039c0 0.628 0.203 1.209 0.545 1.683-0.427 0.069-0.838 0.206-1.222 0.407-0.868-1.296-2.291-2.189-3.926-2.34-0.006-0.002-0.013-0.003-0.019-0.005 0.585-0.653 0.942-1.515 0.942-2.459v-5.104c0-0.345-0.28-0.625-0.625-0.625h-3.796c-1.631 0-2.958 1.327-2.958 2.958v2.771c0 0.944 0.357 1.805 0.941 2.459-0.006 0.002-0.013 0.003-0.019 0.005-1.635 0.151-3.058 1.044-3.926 2.34-0.383-0.2-0.795-0.337-1.222-0.407 0.343-0.474 0.545-1.055 0.545-1.683v-3.756c0-0.345-0.28-0.625-0.625-0.625h-2.793c-1.291 0-2.342 1.050-2.342 2.342v2.039c0 0.629 0.203 1.21 0.546 1.684-1.935 0.316-3.416 1.999-3.416 4.021v1.852c0 0.345 0.28 0.625 0.625 0.625h30.75c0.345 0 0.625-0.28 0.625-0.625v-1.852c0-2.023-1.481-3.705-3.416-4.021zM4.12 21.779c0-0.602 0.49-1.092 1.092-1.092h2.168v0.761c0 0.373-0.304 0.677-0.677 0.677h-2.583v-0.346zM4.12 23.375h2.583c0.238 0 0.466-0.044 0.677-0.123v0.566c0 0.899-0.731 1.63-1.63 1.63s-1.63-0.731-1.63-1.63v-0.443zM6.153 26.698l-0.403 0.403-0.403-0.403h0.806zM8.409 28.858v1.892h-7.159v-1.227c0-1.402 1.026-2.568 2.367-2.788l1.691 1.691c0.117 0.117 0.276 0.183 0.442 0.183s0.325-0.066 0.442-0.183l1.692-1.692c0.299 0.049 0.586 0.145 0.854 0.286-0.212 0.573-0.328 1.192-0.328 1.837zM16 23.544c-1.345 0-2.44-1.095-2.44-2.44v-0.826h3.735c0.414 0 0.804-0.106 1.144-0.292v1.118c0 1.345-1.095 2.44-2.44 2.44zM17.089 24.794l-1.089 1.090-1.089-1.090h2.179zM13.56 18.333h0c0-0.942 0.766-1.708 1.708-1.708h3.171v1.259c0 0.631-0.513 1.144-1.144 1.144h-3.735v-0.695zM22.34 30.75h-12.681v-1.25h4.070c0.345 0 0.625-0.28 0.625-0.625s-0.28-0.625-0.625-0.625h-4.024c0.268-1.776 1.69-3.178 3.475-3.418l2.378 2.378c0.122 0.122 0.282 0.183 0.442 0.183s0.32-0.061 0.442-0.183l2.378-2.378c1.985 0.267 3.521 1.97 3.521 4.027v1.892zM24.62 21.779c0-0.602 0.49-1.092 1.092-1.092h2.168v0.761c0 0.373-0.304 0.677-0.677 0.677h-2.583v-0.346zM24.62 23.375h2.583c0.238 0 0.466-0.044 0.677-0.123v0.566c0 0.899-0.731 1.63-1.63 1.63s-1.63-0.731-1.63-1.63v-0.443zM26.653 26.698l-0.403 0.403-0.403-0.403h0.806zM23.59 30.75v-1.892c0-0.646-0.116-1.265-0.328-1.837 0.268-0.141 0.555-0.237 0.854-0.286l1.692 1.692c0.117 0.117 0.276 0.183 0.442 0.183s0.325-0.066 0.442-0.183l1.691-1.691c1.341 0.22 2.367 1.386 2.367 2.788v1.227h-7.16z"></path>
<path fill="#e6514a" style="fill: var(--color2, #e6514a)" d="M19.080 4.084c-0.244-0.244-0.64-0.244-0.884 0l-3.067 3.067-1.326-1.326c-0.244-0.244-0.64-0.244-0.884-0s-0.244 0.64 0 0.884l1.768 1.768c0.117 0.117 0.276 0.183 0.442 0.183s0.325-0.066 0.442-0.183l3.509-3.509c0.244-0.244 0.244-0.64 0-0.884z"></path>
<path fill="#e6514a" style="fill: var(--color2, #e6514a)" d="M18.556 0.542c-0.315-0.141-0.685 0.001-0.825 0.316s0.001 0.685 0.316 0.825c1.812 0.808 2.984 2.612 2.984 4.596 0 2.773-2.256 5.030-5.030 5.030s-5.030-2.256-5.030-5.030c0-1.974 1.163-3.774 2.962-4.587 0.315-0.142 0.454-0.512 0.312-0.827s-0.512-0.454-0.827-0.312c-2.246 1.014-3.698 3.262-3.698 5.726-0 3.463 2.817 6.28 6.28 6.28s6.28-2.817 6.28-6.28c0-2.477-1.462-4.729-3.724-5.738z"></path>
<path fill="#3035c4" style="fill: var(--color3, #3035c4)" d="M16.022 0h-0.022c-0.345 0-0.625 0.28-0.625 0.625s0.28 0.625 0.625 0.625h0.017c0.001 0 0.002 0 0.003 0 0.344 0 0.623-0.278 0.625-0.622 0.002-0.345-0.277-0.626-0.622-0.628z"></path>
<path fill="#3035c4" style="fill: var(--color3, #3035c4)" d="M16.442 28.433c-0.116-0.116-0.277-0.183-0.442-0.183s-0.326 0.067-0.442 0.183c-0.116 0.116-0.183 0.277-0.183 0.442s0.067 0.326 0.183 0.442c0.116 0.116 0.277 0.183 0.442 0.183s0.326-0.067 0.442-0.183c0.116-0.116 0.183-0.277 0.183-0.442s-0.067-0.326-0.183-0.442z"></path>
</symbol>
<symbol id="icon-btn-phone" viewBox="0 0 32 32">
<path fill="#fff" style="fill: var(--color1, #fff)" d="M18.713 20.781l-1.822 1.908c-0.29 0.301-0.74 0.353-1.086 0.125l-0.011-0.010c-2.498-1.724-4.636-3.963-6.281-6.58l-0.017-0.019c-0.218-0.362-0.169-0.834 0.118-1.139l1.822-1.908c0.87-0.912 0.88-2.332 0.023-3.23l-2.894-3.032c-0.85-0.899-2.234-0.906-3.092-0.016l-0.761 0.797c-3.116 3.265-3.606 8.34-1.164 12.068l1.127 1.721c1.641 2.509 3.712 4.679 6.107 6.398l1.643 1.18c3.559 2.558 8.403 2.045 11.52-1.22l0.747-0.782c0.858-0.891 0.864-2.341 0.014-3.239l-2.908-3.047c-0.857-0.897-2.212-0.888-3.083 0.024zM23.65 24.878c0.284 0.288 0.292 0.762 0.017 1.059-0.005 0.006-0.011 0.011-0.016 0.017l-0.747 0.782c-2.616 2.74-6.673 3.177-9.649 1.039l-1.642-1.18c-2.247-1.612-4.188-3.646-5.727-6l-1.127-1.72c-2.041-3.117-1.624-7.368 0.992-10.108l0.747-0.782c0.275-0.297 0.727-0.305 1.011-0.017l2.911 3.049c0.283 0.297 0.274 0.74-0.023 1.051l-1.822 1.908c-0.781 0.823-0.907 2.106-0.304 3.080 0 0 0.009 0.011 0.010 0.013 1.753 2.786 4.028 5.17 6.688 7.006 0.002 0.002 0.020 0.019 0.020 0.019 0.93 0.633 2.154 0.501 2.942-0.317l1.821-1.908c0.297-0.311 0.72-0.321 1.004-0.024l2.894 3.032z"></path>
<path fill="#fff" style="fill: var(--color1, #fff)" d="M14.004 2.114c0.005 0.425 0.338 0.766 0.743 0.761 3.727-0.046 7.212 1.43 9.814 4.156s4.011 6.378 3.967 10.281c-0.007 0.425 0.317 0.776 0.723 0.782s0.74-0.332 0.747-0.757l0-0.007c0.049-4.322-1.513-8.366-4.398-11.389s-6.745-4.658-10.871-4.607c-0.406 0.005-0.731 0.354-0.726 0.779z"></path>
<path fill="#fff" style="fill: var(--color1, #fff)" d="M14.674 6.345c-0.264 0-0.507 0.148-0.638 0.388s-0.129 0.535 0.005 0.773c0.134 0.238 0.379 0.383 0.643 0.379l0.007-0c4.916-0.089 8.971 4.014 9.056 9.165 0.002 0.107 0.002 0.214-0 0.322-0.007 0.425 0.317 0.776 0.723 0.782s0.74-0.332 0.747-0.757l-0-0.007c0.095-6.001-4.472-10.945-10.2-11.044-0.114-0.002-0.228-0.002-0.342 0z"></path>
<path fill="none" stroke="#fff" style="stroke: var(--color1, #fff)" stroke-linejoin="miter" stroke-linecap="butt" stroke-miterlimit="4" stroke-width="1.12" d="M18.713 20.781l-1.822 1.908c-0.29 0.301-0.74 0.353-1.086 0.125l-0.011-0.010c-2.498-1.724-4.636-3.963-6.281-6.58l-0.017-0.019c-0.218-0.362-0.169-0.834 0.118-1.139l1.822-1.908c0.87-0.912 0.88-2.332 0.023-3.23l-2.894-3.032c-0.85-0.899-2.234-0.906-3.092-0.016l-0.761 0.797c-3.116 3.265-3.606 8.34-1.164 12.068l1.127 1.721c1.641 2.509 3.712 4.679 6.107 6.398l1.643 1.18c3.559 2.558 8.403 2.045 11.52-1.22l0.747-0.782c0.858-0.891 0.864-2.341 0.014-3.239l-2.908-3.047c-0.857-0.897-2.212-0.888-3.083 0.024zM23.65 24.878c0.284 0.288 0.292 0.762 0.017 1.059-0.005 0.006-0.011 0.011-0.016 0.017l-0.747 0.782c-2.616 2.74-6.673 3.177-9.649 1.039l-1.642-1.18c-2.247-1.612-4.188-3.646-5.727-6l-1.127-1.72c-2.041-3.117-1.624-7.368 0.992-10.108l0.747-0.782c0.275-0.297 0.727-0.305 1.011-0.017l2.911 3.049c0.283 0.297 0.274 0.74-0.023 1.051l-1.822 1.908c-0.781 0.823-0.907 2.106-0.304 3.080 0 0 0.009 0.011 0.010 0.013 1.753 2.786 4.028 5.17 6.688 7.006 0.002 0.002 0.020 0.019 0.020 0.019 0.93 0.633 2.154 0.501 2.942-0.317l1.821-1.908c0.297-0.311 0.72-0.321 1.004-0.024l2.894 3.032z"></path>
<path fill="none" stroke="#fff" style="stroke: var(--color1, #fff)" stroke-linejoin="miter" stroke-linecap="butt" stroke-miterlimit="4" stroke-width="1.12" d="M14.004 2.114c0.005 0.425 0.338 0.766 0.743 0.761 3.727-0.046 7.212 1.43 9.814 4.156s4.011 6.378 3.967 10.281c-0.007 0.425 0.317 0.776 0.723 0.782s0.74-0.332 0.747-0.757l0-0.007c0.049-4.322-1.513-8.366-4.398-11.389s-6.745-4.658-10.871-4.607c-0.406 0.005-0.731 0.354-0.726 0.779z"></path>
<path fill="none" stroke="#fff" style="stroke: var(--color1, #fff)" stroke-linejoin="miter" stroke-linecap="butt" stroke-miterlimit="4" stroke-width="1.12" d="M14.674 6.345c-0.264 0-0.507 0.148-0.638 0.388s-0.129 0.535 0.005 0.773c0.134 0.238 0.379 0.383 0.643 0.379l0.007-0c4.916-0.089 8.971 4.014 9.056 9.165 0.002 0.107 0.002 0.214-0 0.322-0.007 0.425 0.317 0.776 0.723 0.782s0.74-0.332 0.747-0.757l-0-0.007c0.095-6.001-4.472-10.945-10.2-11.044-0.114-0.002-0.228-0.002-0.342 0z"></path>
</symbol>
<symbol id="icon-vk" viewBox="0 0 32 32">
<path d="M16.421 25.331c-2.271 0-4.228-0.486-5.963-1.479-1.652-0.945-3.083-2.283-4.506-4.21-2.020-2.737-3.79-5.891-5.74-10.227-0.273-0.607-0.282-1.118-0.028-1.519s0.719-0.609 1.381-0.62c1.405-0.027 2.846-0.028 4.404-0.002 0.818 0.012 1.456 0.476 1.795 1.306 0.824 2.026 1.773 3.784 2.9 5.376 0.282 0.398 0.574 0.81 0.962 1.075l0.002 0.001c0.073 0.050 0.174 0.020 0.208-0.061l0.001-0.003c0.108-0.254 0.174-0.56 0.21-0.963 0.128-1.499 0.107-2.737-0.067-3.894-0.088-0.596-0.373-0.907-0.925-1.012-0.157-0.030-0.633-0.12-0.793-0.572-0.158-0.447 0.152-0.813 0.269-0.951 0.404-0.473 0.907-0.908 1.859-0.908h5.058c0.039 0 0.079 0.003 0.117 0.011 1.274 0.249 1.487 1.054 1.597 1.857 0.004 0.028 0.006 0.057 0.006 0.085l0.004 5.619c0 0.006-0 0.012-0 0.018-0.003 0.117 0.028 0.283 0.076 0.436 0.067 0.212 0.338 0.272 0.49 0.11 0.001-0.001 0.002-0.002 0.003-0.003l0.055-0.058c1.226-1.302 2.073-2.864 2.739-4.22 0.348-0.703 0.648-1.443 0.903-2.082 0.318-0.8 0.901-1.199 1.742-1.185l4.863 0.004c0.168 0 0.348 0.003 0.537 0.035 0.388 0.066 0.94 0.211 1.237 0.698s0.174 1.042 0.055 1.417c-0.415 1.307-1.19 2.38-1.94 3.418l-0.086 0.119c-0.384 0.532-0.785 1.060-1.173 1.572-0.436 0.575-0.887 1.17-1.31 1.764-0.283 0.395-0.406 0.662-0.388 0.842 0.018 0.183 0.194 0.431 0.552 0.78 0 0 0 0 0 0 0.266 0.26 0.543 0.522 0.81 0.775 0.761 0.72 1.547 1.465 2.243 2.299 0.383 0.462 0.819 1.021 1.155 1.669 0.322 0.624 0.327 1.328 0.013 1.884-0.261 0.462-0.705 0.746-1.218 0.78-0.014 0.001-0.028 0.001-0.042 0.001 0 0-0 0-0 0l-4.45-0.002c-1.239 0.095-2.358-0.359-3.33-1.349-0.43-0.437-0.84-0.896-1.236-1.34-0.186-0.208-0.379-0.424-0.569-0.632-0.188-0.205-0.417-0.439-0.682-0.611-0.145-0.094-0.276-0.139-0.349-0.121-0.069 0.017-0.157 0.113-0.235 0.255-0.278 0.508-0.359 1.092-0.394 1.813-0.062 1.364-0.632 1.922-2.033 1.985-0.266 0.013-0.529 0.019-0.787 0.019zM1.278 8.591c0.006 0.051 0.028 0.148 0.097 0.301 1.911 4.249 3.639 7.331 5.603 9.992 1.313 1.779 2.62 3.006 4.113 3.86 1.716 0.982 3.697 1.405 6.058 1.294 0.491-0.022 0.639-0.096 0.683-0.138 0.034-0.032 0.114-0.158 0.136-0.634 0.038-0.778 0.13-1.602 0.549-2.366 0.323-0.59 0.745-0.803 1.041-0.878 0.3-0.076 0.778-0.087 1.355 0.288 0.386 0.25 0.686 0.555 0.928 0.82 0.196 0.214 0.391 0.432 0.579 0.643 0.387 0.433 0.786 0.88 1.195 1.296 0.721 0.734 1.466 1.043 2.342 0.97 0.017-0.001 0.035-0.002 0.052-0.002 0 0 0 0 0.001 0l4.449 0.002c0.039-0.005 0.115-0.025 0.176-0.133 0.075-0.133 0.111-0.389-0.035-0.672-0.28-0.541-0.664-1.031-1.003-1.439-0.647-0.775-1.372-1.462-2.14-2.189-0.271-0.256-0.551-0.521-0.824-0.788-1.155-1.127-1.237-1.984-0.311-3.276 0.433-0.608 0.89-1.21 1.332-1.793 0.383-0.506 0.78-1.028 1.155-1.548l0.086-0.12c0.722-1 1.405-1.945 1.758-3.057 0.070-0.222 0.071-0.328 0.068-0.365-0.031-0.020-0.127-0.068-0.359-0.108-0.092-0.016-0.21-0.017-0.323-0.017l-4.869-0.004c-0.004 0-0.008 0-0.012-0-0.287-0.006-0.407 0.049-0.539 0.381-0.264 0.663-0.576 1.432-0.944 2.175-0.707 1.44-1.611 3.106-2.955 4.532l-0.051 0.054c-0.286 0.305-0.817 0.873-1.621 0.61-0.007-0.002-0.015-0.005-0.022-0.008-0.883-0.325-1.142-1.508-1.131-2.042l-0.004-5.567c-0.028-0.199-0.075-0.453-0.155-0.561-0.019-0.025-0.075-0.099-0.356-0.162h-4.992c-0.204 0-0.35 0.028-0.48 0.096 0.733 0.332 1.198 0.983 1.331 1.884 0.19 1.257 0.214 2.59 0.077 4.194-0.048 0.54-0.145 0.968-0.306 1.348-0.249 0.589-0.618 0.806-0.885 0.884s-0.694 0.095-1.221-0.266c-0.575-0.394-0.967-0.947-1.282-1.391-1.185-1.673-2.179-3.515-3.040-5.632-0.182-0.446-0.423-0.509-0.634-0.512-1.544-0.026-2.97-0.025-4.36 0.002-0.167 0.003-0.262 0.024-0.311 0.040z"></path>
<path d="M4.081 11.527c-0.233 0-0.457-0.128-0.569-0.35-0.095-0.189-0.19-0.378-0.284-0.568-0.156-0.316-0.026-0.698 0.289-0.854s0.698-0.026 0.854 0.289c0.092 0.186 0.185 0.372 0.278 0.557 0.159 0.314 0.033 0.698-0.281 0.856-0.092 0.047-0.19 0.069-0.287 0.069z"></path>
<path d="M8.135 18.231c-0.195 0-0.388-0.090-0.513-0.259-1.079-1.461-2.086-3.046-3.079-4.843-0.17-0.308-0.059-0.696 0.25-0.866s0.696-0.059 0.866 0.249c0.966 1.748 1.944 3.286 2.989 4.702 0.209 0.283 0.149 0.682-0.134 0.891-0.114 0.084-0.246 0.125-0.378 0.125z"></path>
</symbol>
<symbol id="icon-instogram" viewBox="0 0 32 32">
<path d="M21.826 30.436h-11.652c-4.728 0-8.574-3.846-8.574-8.574v-11.724c0-4.728 3.846-8.574 8.574-8.574h11.652c4.728 0 8.574 3.846 8.574 8.574v11.724c0 4.728-3.846 8.574-8.574 8.574zM10.174 2.714c-4.094 0-7.424 3.33-7.424 7.424v11.724c0 4.094 3.33 7.424 7.424 7.424h11.652c4.094 0 7.424-3.33 7.424-7.424v-11.724c0-4.094-3.33-7.424-7.424-7.424l-11.652-0zM21.826 27.149h-11.652c-2.915 0-5.287-2.372-5.287-5.287v-11.724c0-2.915 2.372-5.287 5.287-5.287h11.652c2.915 0 5.287 2.372 5.287 5.287v11.724c0 2.915-2.372 5.287-5.287 5.287zM10.174 6.001c-2.281 0-4.137 1.856-4.137 4.137v11.724c0 2.281 1.856 4.137 4.137 4.137h11.652c2.281 0 4.137-1.856 4.137-4.137v-11.724c0-2.281-1.856-4.137-4.137-4.137l-11.652-0z"></path>
<path d="M16 23.433c-4.099 0-7.434-3.335-7.434-7.433s3.335-7.434 7.434-7.434 7.433 3.335 7.433 7.434c0 4.099-3.335 7.433-7.433 7.433zM16 9.717c-3.465 0-6.283 2.819-6.283 6.283s2.819 6.283 6.283 6.283 6.283-2.819 6.283-6.283c0-3.465-2.819-6.283-6.283-6.283zM16 20.227c-2.331 0-4.227-1.896-4.227-4.227s1.896-4.227 4.227-4.227c2.331 0 4.227 1.896 4.227 4.227s-1.896 4.227-4.227 4.227zM16 12.923c-1.697 0-3.077 1.38-3.077 3.077s1.38 3.077 3.077 3.077c1.697 0 3.077-1.38 3.077-3.077s-1.38-3.077-3.077-3.077z"></path>
<path d="M23.020 10.766c-0.985 0-1.786-0.801-1.786-1.786s0.801-1.786 1.786-1.786c0.985 0 1.786 0.801 1.786 1.786s-0.801 1.786-1.786 1.786zM23.020 8.344c-0.351 0-0.636 0.285-0.636 0.636s0.285 0.636 0.636 0.636 0.636-0.285 0.636-0.636c0-0.351-0.285-0.636-0.636-0.636z"></path>
<path d="M15.080 28.826h-5.406c-0.318 0-0.575-0.258-0.575-0.575s0.257-0.575 0.575-0.575h5.406c0.318 0 0.575 0.258 0.575 0.575s-0.258 0.575-0.575 0.575z"></path>
<path d="M17.265 28.826h-0.345c-0.318 0-0.575-0.258-0.575-0.575s0.258-0.575 0.575-0.575h0.345c0.318 0 0.575 0.258 0.575 0.575s-0.257 0.575-0.575 0.575z"></path>
</symbol>
<symbol id="icon-fb" viewBox="0 0 32 32">
<path d="M17.657 30.4h-5.139c-0.562 0-1.020-0.457-1.020-1.020v-11.905h-2.457c-0.562 0-1.020-0.457-1.020-1.020v-4.535c0-0.562 0.457-1.020 1.020-1.020h2.608v-2.747c-0.086-0.556-0.282-2.809 1.765-4.693 1.876-1.726 4.24-1.86 4.92-1.86 0.084 0 0.144 0.002 0.179 0.003h3.604c0.562 0 1.020 0.457 1.020 1.020v4.217c0 0.562-0.457 1.020-1.020 1.020h-2.624c-0.686 0-0.816 0.258-0.816 0.735v2.306h3.44c0.29 0 0.568 0.124 0.761 0.341s0.285 0.507 0.252 0.795l-0.529 4.594c-0.059 0.515-0.495 0.903-1.013 0.903h-2.911v11.846c0 0.562-0.457 1.020-1.020 1.020zM12.645 29.253h4.884v-12.292c0-0.317 0.257-0.574 0.574-0.574h3.371l0.5-4.339h-3.87c-0.317 0-0.574-0.257-0.574-0.574v-2.88c0-1.178 0.734-1.882 1.963-1.882h2.497v-3.962h-3.489c-0.009 0-0.019-0-0.028-0.001s-0.057-0.003-0.137-0.003c-0.575 0-2.573 0.112-4.143 1.557-1.68 1.546-1.464 3.357-1.403 3.704 0.006 0.032 0.008 0.065 0.008 0.098v3.368c0 0.317-0.257 0.574-0.574 0.574h-3.054v4.28h2.903c0.317 0 0.574 0.257 0.574 0.574v12.351z"></path>
</symbol>
<symbol id="icon-Button" viewBox="0 0 32 32">
<path fill="#e6514a" style="fill: var(--color2, #e6514a)" d="M16 0c8.837 0 16 7.163 16 16s-7.163 16-16 16c-8.837 0-16-7.163-16-16s7.163-16 16-16z"></path>
<path fill="#fff" style="fill: var(--color1, #fff)" d="M24.043 20.9l-2.601-2.607c-0.518-0.517-1.376-0.501-1.912 0.036l-1.31 1.313c-0.083-0.046-0.168-0.093-0.259-0.144-0.828-0.46-1.96-1.089-3.152-2.285-1.195-1.198-1.824-2.335-2.284-3.165-0.049-0.088-0.095-0.173-0.141-0.253l1.312-1.314c0.537-0.538 0.552-1.398 0.035-1.917l-2.601-2.607c-0.517-0.518-1.375-0.502-1.912 0.036l-0.733 0.739 0.020 0.020c-0.246 0.314-0.451 0.677-0.604 1.068-0.141 0.372-0.229 0.727-0.269 1.083-0.343 2.854 0.958 5.462 4.489 9.001 4.881 4.892 8.814 4.522 8.984 4.504 0.37-0.044 0.724-0.133 1.084-0.273 0.387-0.151 0.748-0.357 1.062-0.603l0.016 0.014 0.743-0.729c0.536-0.538 0.551-1.398 0.035-1.918z"></path>
</symbol>
<symbol id="icon-whatsapp" viewBox="0 0 32 32">
<path fill="#4caf50" style="fill: var(--color4, #4caf50)" d="M16.004 0h-0.008c-8.822 0-15.996 7.176-15.996 16 0 3.5 1.128 6.744 3.046 9.378l-1.994 5.944 6.15-1.966c2.53 1.676 5.548 2.644 8.802 2.644 8.822 0 15.996-7.178 15.996-16s-7.174-16-15.996-16z"></path>
<path fill="#fafafa" style="fill: var(--color5, #fafafa)" d="M25.314 22.594c-0.386 1.090-1.918 1.994-3.14 2.258-0.836 0.178-1.928 0.32-5.604-1.204-4.702-1.948-7.73-6.726-7.966-7.036-0.226-0.31-1.9-2.53-1.9-4.826s1.166-3.414 1.636-3.894c0.386-0.394 1.024-0.574 1.636-0.574 0.198 0 0.376 0.010 0.536 0.018 0.47 0.020 0.706 0.048 1.016 0.79 0.386 0.93 1.326 3.226 1.438 3.462 0.114 0.236 0.228 0.556 0.068 0.866-0.15 0.32-0.282 0.462-0.518 0.734s-0.46 0.48-0.696 0.772c-0.216 0.254-0.46 0.526-0.188 0.996 0.272 0.46 1.212 1.994 2.596 3.226 1.786 1.59 3.234 2.098 3.752 2.314 0.386 0.16 0.846 0.122 1.128-0.178 0.358-0.386 0.8-1.026 1.25-1.656 0.32-0.452 0.724-0.508 1.148-0.348 0.432 0.15 2.718 1.28 3.188 1.514 0.47 0.236 0.78 0.348 0.894 0.546 0.112 0.198 0.112 1.128-0.274 2.22z"></path>
</symbol>
<symbol id="icon-file-word" viewBox="0 0 32 32">
<path d="M19.993 14.872h1.382l-1.594 7.068-2.073-9.938h-3.33l-2.41 9.938-1.807-9.938h-3.481l3.534 15.996h3.401l2.384-9.46 2.133 9.46h3.136l4.051-15.996h-5.326v2.87z"></path>
<path d="M28.681 7.159c-0.694-0.947-1.662-2.053-2.724-3.116s-2.169-2.030-3.116-2.724c-1.612-1.182-2.393-1.319-2.841-1.319h-15.5c-1.378 0-2.5 1.121-2.5 2.5v27c0 1.378 1.121 2.5 2.5 2.5h23c1.378 0 2.5-1.122 2.5-2.5v-19.5c0-0.448-0.137-1.23-1.319-2.841v0zM24.543 5.457c0.959 0.959 1.712 1.825 2.268 2.543h-4.811v-4.811c0.718 0.556 1.584 1.309 2.543 2.268v0zM28 29.5c0 0.271-0.229 0.5-0.5 0.5h-23c-0.271 0-0.5-0.229-0.5-0.5v-27c0-0.271 0.229-0.5 0.5-0.5 0 0 15.499-0 15.5 0v7c0 0.552 0.448 1 1 1h7v19.5z"></path>
</symbol>
<symbol id="icon-file-excel" viewBox="0 0 32 32">
<path d="M23.22 12h-4.228l-2.992 4.407-2.992-4.407h-4.228l5.068 7.577-5.718 8.423h7.87v-2.862h-1.567l1.567-2.344 3.481 5.205h4.389l-5.718-8.423 5.068-7.577z"></path>
<path d="M28.681 7.159c-0.694-0.947-1.662-2.053-2.724-3.116s-2.169-2.030-3.116-2.724c-1.612-1.182-2.393-1.319-2.841-1.319h-15.5c-1.378 0-2.5 1.121-2.5 2.5v27c0 1.378 1.121 2.5 2.5 2.5h23c1.378 0 2.5-1.122 2.5-2.5v-19.5c0-0.448-0.137-1.23-1.319-2.841v0zM24.543 5.457c0.959 0.959 1.712 1.825 2.268 2.543h-4.811v-4.811c0.718 0.556 1.584 1.309 2.543 2.268v0zM28 29.5c0 0.271-0.229 0.5-0.5 0.5h-23c-0.271 0-0.5-0.229-0.5-0.5v-27c0-0.271 0.229-0.5 0.5-0.5 0 0 15.499-0 15.5 0v7c0 0.552 0.448 1 1 1h7v19.5z"></path>
</symbol>
</defs>
</svg>
